<svg width="33" height="32" viewBox="0 0 33 32" fill="none" xmlns="http://www.w3.org/2000/svg">
<path fill-rule="evenodd" clip-rule="evenodd" d="M22.4336 4H8.43359L8.43359 23H14.7235C14.9385 23.7224 15.267 24.396 15.6883 25H8.43359C7.32902 25 6.43359 24.1046 6.43359 23V4C6.43359 2.89543 7.32902 2 8.43359 2H22.4336C23.5382 2 24.4336 2.89543 24.4336 4V14.6736C23.8119 14.3783 23.1397 14.1719 22.4336 14.0709V4ZM14.5045 20C14.6055 19.2939 14.8119 18.6217 15.1072 18H12.4336C11.8813 18 11.4336 18.4477 11.4336 19C11.4336 19.5523 11.8813 20 12.4336 20H14.5045ZM17.826 15C18.6078 14.5289 19.4892 14.2063 20.4311 14.0712C20.4328 14.0477 20.4336 14.024 20.4336 14C20.4336 13.4477 19.9859 13 19.4336 13H12.4336C11.8813 13 11.4336 13.4477 11.4336 14C11.4336 14.5523 11.8813 15 12.4336 15H17.826ZM13.4336 9C13.4336 9.55228 12.9859 10 12.4336 10C11.8813 10 11.4336 9.55228 11.4336 9C11.4336 8.44772 11.8813 8 12.4336 8C12.9859 8 13.4336 8.44772 13.4336 9ZM15.4336 8C14.8813 8 14.4336 8.44772 14.4336 9C14.4336 9.55228 14.8813 10 15.4336 10H19.4336C19.9859 10 20.4336 9.55228 20.4336 9C20.4336 8.44772 19.9859 8 19.4336 8H15.4336ZM26.0063 17.8336C27.5464 20.5011 26.6707 23.9004 24.058 25.4982L26.1119 29.0557C26.2858 29.3567 26.1826 29.7417 25.8815 29.9156C25.5805 30.0894 25.1955 29.9862 25.0216 29.6852L22.914 26.0346C20.4073 26.8847 17.5675 25.8788 16.1936 23.499C14.6291 20.7893 15.5575 17.3244 18.2672 15.76C20.977 14.1955 24.4419 15.1239 26.0063 17.8336ZM17.637 22.6657C18.7412 24.5782 21.1867 25.2335 23.0993 24.1293C25.0118 23.0251 25.6671 20.5795 24.5629 18.667C23.4587 16.7544 21.0131 16.0992 19.1006 17.2034C17.188 18.3076 16.5328 20.7531 17.637 22.6657Z" fill="#5C2E0C"/>
</svg>
