<svg width="32" height="32" viewBox="0 0 32 32" fill="none" xmlns="http://www.w3.org/2000/svg">
<path d="M15.8894 16.7636C16.3257 16.7636 16.7075 16.4091 16.7075 15.9455V12.2639C16.7075 11.8276 16.353 11.4458 15.8894 11.4458C15.4531 11.4458 15.0713 11.8003 15.0713 12.2639V15.9455C15.0713 16.4091 15.4531 16.7636 15.8894 16.7636Z" fill="#5C2E0C"/>
<path d="M15.8898 19.2452C16.3717 19.2452 16.7624 18.8545 16.7624 18.3726C16.7624 17.8906 16.3717 17.4999 15.8898 17.4999C15.4078 17.4999 15.0171 17.8906 15.0171 18.3726C15.0171 18.8545 15.4078 19.2452 15.8898 19.2452Z" fill="#5C2E0C"/>
<path d="M16.2168 7.60061C14.2533 7.5188 12.3716 8.20057 10.9536 9.5641C9.53548 10.9276 8.74463 12.7548 8.74463 14.7183C8.74463 16.3272 9.26277 17.8544 10.2718 19.1361C11.1445 20.2542 11.7444 21.3178 12.1262 22.4359L12.1535 22.5177V25.3811C12.1535 25.7356 12.4262 26.0629 12.7807 26.1174C12.9171 27.6991 14.2533 28.9536 15.8896 28.9536C17.5258 28.9536 18.8621 27.6991 18.9984 26.0902C19.3529 26.0356 19.6257 25.7356 19.6257 25.3539V22.5177L19.6529 22.4359C20.0347 21.3178 20.6347 20.2542 21.5073 19.1634C22.5709 17.8271 23.1163 16.1363 23.0345 14.4456C22.8436 10.764 19.8711 7.76424 16.2168 7.60061ZM15.8896 27.4537C15.0714 27.4537 14.4169 26.8537 14.2806 26.0902H17.4985C17.3622 26.881 16.7077 27.4537 15.8896 27.4537ZM18.1258 24.6175H13.6534V22.8177H18.1258V24.6175ZM20.3074 18.2089C19.4893 19.2452 18.8893 20.2542 18.453 21.3178H13.3261C12.8898 20.2815 12.2898 19.2452 11.4717 18.2089C10.6809 17.1999 10.2718 16 10.2718 14.7183C10.2718 13.1638 10.899 11.7185 12.0171 10.6277C13.1352 9.5641 14.6078 8.99142 16.1895 9.07323C19.0802 9.20958 21.4255 11.5821 21.5619 14.4456C21.5891 15.8364 21.1528 17.1454 20.3074 18.2089Z" fill="#5C2E0C"/>
<path d="M15.8896 5.90983C16.2987 5.90983 16.6259 5.58258 16.6259 5.17352V3.78271C16.6259 3.37365 16.2987 3.0464 15.8896 3.0464C15.4806 3.0464 15.1533 3.37365 15.1533 3.78271V5.17352C15.1533 5.58258 15.4806 5.90983 15.8896 5.90983Z" fill="#5C2E0C"/>
<path d="M10.4627 6.83704C10.599 7.08247 10.8445 7.21883 11.1172 7.21883C11.2535 7.21883 11.3626 7.19155 11.499 7.10974C11.8535 6.89158 11.9898 6.45524 11.7717 6.10073L11.0899 4.90081C10.8717 4.54629 10.4354 4.40994 10.0809 4.62811C9.72638 4.84627 9.59002 5.2826 9.80819 5.63712L10.4627 6.83704Z" fill="#5C2E0C"/>
<path d="M7.98099 9.2914L6.78107 8.60963C6.42656 8.39146 5.96295 8.52782 5.77206 8.88233C5.55389 9.23685 5.69025 9.70046 6.04476 9.89135L7.24468 10.5731C7.35376 10.6277 7.49011 10.6822 7.62647 10.6822C7.8719 10.6822 8.14461 10.5458 8.28096 10.3004C8.47186 9.97316 8.33551 9.50956 7.98099 9.2914Z" fill="#5C2E0C"/>
<path d="M7.0812 14.7183C7.0812 14.3092 6.75395 13.982 6.34489 13.982H4.95408C4.54502 13.982 4.21777 14.3092 4.21777 14.7183C4.21777 15.1273 4.54502 15.4546 4.95408 15.4546H6.34489C6.75395 15.4819 7.0812 15.1273 7.0812 14.7183Z" fill="#5C2E0C"/>
<path d="M7.24468 18.8634L6.04476 19.5452C5.69025 19.7634 5.55389 20.1997 5.77206 20.5542C5.90841 20.7996 6.15385 20.936 6.42655 20.936C6.56291 20.936 6.67199 20.9087 6.80835 20.8269L8.00826 20.1452C8.36278 19.927 8.49913 19.4907 8.28096 19.1361C8.0628 18.7816 7.5992 18.6453 7.24468 18.8634Z" fill="#5C2E0C"/>
<path d="M25.7344 19.5452L24.5345 18.8634C24.18 18.6453 23.7164 18.7816 23.5255 19.1361C23.3073 19.4907 23.4437 19.9543 23.7982 20.1452L24.9981 20.8269C25.1072 20.8815 25.2435 20.936 25.3799 20.936C25.6253 20.936 25.898 20.7996 26.0344 20.5542C26.198 20.1997 26.0889 19.7634 25.7344 19.5452Z" fill="#5C2E0C"/>
<path d="M26.8254 13.982H25.4346C25.0255 13.982 24.6982 14.3092 24.6982 14.7183C24.6982 15.1273 25.0255 15.4546 25.4346 15.4546H26.8254C27.2344 15.4546 27.5617 15.1273 27.5617 14.7183C27.5617 14.3092 27.2344 13.982 26.8254 13.982Z" fill="#5C2E0C"/>
<path d="M24.1527 10.6822C24.2891 10.6822 24.3981 10.6549 24.5345 10.5731L25.7344 9.89135C26.0889 9.67319 26.2253 9.23685 26.0071 8.88233C25.7889 8.52782 25.3526 8.39146 24.9981 8.60963L23.7982 9.2914C23.4437 9.50956 23.3073 9.94589 23.5255 10.3004C23.6618 10.5731 23.9073 10.6822 24.1527 10.6822Z" fill="#5C2E0C"/>
<path d="M20.2806 7.10974C20.3897 7.16428 20.526 7.21883 20.6624 7.21883C20.9078 7.21883 21.1805 7.08247 21.3169 6.83704L21.9987 5.63712C22.2168 5.2826 22.0805 4.819 21.726 4.62811C21.3714 4.40994 20.9078 4.54629 20.7169 4.90081L20.0352 6.10073C19.817 6.42797 19.9261 6.89158 20.2806 7.10974Z" fill="#5C2E0C"/>
</svg>
