<svg width="36" height="36" viewBox="0 0 36 36" fill="none" xmlns="http://www.w3.org/2000/svg">
<path d="M31.6161 26.338C31.2911 26.268 31.0051 26.162 30.7591 26.022C30.4331 25.829 30.1821 25.624 30.0061 25.409C29.8291 25.192 29.6851 24.954 29.5691 24.688C28.8821 23.069 28.0511 21.028 27.0741 18.563C26.0961 16.098 24.7451 12.745 23.0201 8.5H20.3791C19.1381 11.494 18.0041 14.23 16.9801 16.713C15.9541 19.195 14.9311 21.674 13.9101 24.147C13.7431 24.569 13.5341 24.936 13.2831 25.243C13.0321 25.552 12.7261 25.811 12.3661 26.022C12.1541 26.155 11.8661 26.258 11.5011 26.332C11.1361 26.406 10.8081 26.453 10.5171 26.471V27.5H18.2031V26.471C17.2081 26.383 16.4961 26.24 16.0701 26.041C15.6421 25.844 15.4291 25.603 15.4291 25.322C15.4291 25.234 15.4441 25.08 15.4761 24.859C15.5051 24.64 15.6051 24.283 15.7731 23.791C15.9051 23.412 16.0611 22.981 16.2421 22.496C16.3811 22.125 16.5071 21.799 16.6271 21.5H23.3181L24.8041 25.111C24.8651 25.259 24.9031 25.379 24.9151 25.466C24.9291 25.554 24.9361 25.634 24.9361 25.704C24.9361 25.907 24.6151 26.075 23.9721 26.212C23.3291 26.349 22.9771 26.435 22.5011 26.47V27.5H32.5011V26.471C32.2371 26.453 31.9411 26.41 31.6161 26.338ZM22.4951 19.5H17.4311L19.9451 13.135L22.4951 19.5Z" fill="#5C2E0C"/>
<path d="M19.047 26.644C18.807 26.591 18.596 26.515 18.414 26.41C18.174 26.267 17.989 26.117 17.859 25.959C17.73 25.799 17.623 25.623 17.539 25.428C17.033 24.235 16.42 22.731 15.699 20.914C14.98 19.098 13.984 16.627 12.713 13.5H10.768C9.85402 15.705 9.01802 17.723 8.26202 19.553C7.50602 21.381 6.75202 23.207 6.00002 25.03C5.87702 25.34 5.72302 25.61 5.53802 25.839C5.35302 26.066 5.12802 26.257 4.86202 26.411C4.70602 26.509 4.49402 26.585 4.22402 26.641C3.95402 26.696 3.71202 26.729 3.49902 26.743V27.5H9.16103V26.742C8.42903 26.677 7.90402 26.572 7.59002 26.426C7.27702 26.28 7.11802 26.104 7.11802 25.895C7.11802 25.831 7.13002 25.717 7.15302 25.555C7.17402 25.393 7.24703 25.131 7.37103 24.768C7.46803 24.489 7.58303 24.17 7.71703 23.813C7.75103 23.721 7.95402 23.206 8.23302 22.5H12.712L14.026 25.74C14.071 25.849 14.098 25.937 14.108 26.002C14.118 26.066 14.124 26.125 14.124 26.178C14.124 26.326 13.886 26.451 13.413 26.553C12.938 26.653 12.527 26.717 12.177 26.743V27.5H19.5V26.742C19.5 26.742 19.287 26.697 19.047 26.644ZM8.62902 21.5C9.42402 19.492 10.446 16.916 10.446 16.916L12.306 21.5H8.62902Z" fill="#5C2E0C"/>
</svg>
