<svg width="32" height="32" viewBox="0 0 32 32" fill="none" xmlns="http://www.w3.org/2000/svg">
<path fill-rule="evenodd" clip-rule="evenodd" d="M9 4.5C7.89543 4.5 7 5.39543 7 6.5V25.5C7 26.6046 7.89543 27.5 9 27.5H23C24.1046 27.5 25 26.6046 25 25.5V6.5C25 5.39543 24.1046 4.5 23 4.5H9ZM14 11.5C14 12.0523 13.5523 12.5 13 12.5C12.4477 12.5 12 12.0523 12 11.5C12 10.9477 12.4477 10.5 13 10.5C13.5523 10.5 14 10.9477 14 11.5ZM15 11.5C15 10.9477 15.4477 10.5 16 10.5H20C20.5523 10.5 21 10.9477 21 11.5C21 12.0523 20.5523 12.5 20 12.5H16C15.4477 12.5 15 12.0523 15 11.5ZM13 15.5C12.4477 15.5 12 15.9477 12 16.5C12 17.0523 12.4477 17.5 13 17.5H20C20.5523 17.5 21 17.0523 21 16.5C21 15.9477 20.5523 15.5 20 15.5H13ZM12 21.5C12 20.9477 12.4477 20.5 13 20.5H20C20.5523 20.5 21 20.9477 21 21.5C21 22.0523 20.5523 22.5 20 22.5H13C12.4477 22.5 12 22.0523 12 21.5Z" fill="#CE976F"/>
</svg>
