<svg width="32" height="32" viewBox="0 0 32 32" fill="none" xmlns="http://www.w3.org/2000/svg">
<rect width="32" height="32" rx="16" fill="#CE976F"/>
<path d="M15.936 10.308C15.488 10.308 15.112 10.188 14.808 9.948C14.52 9.708 14.376 9.308 14.376 8.748C14.376 8.172 14.52 7.772 14.808 7.548C15.112 7.308 15.488 7.188 15.936 7.188C16.352 7.188 16.712 7.308 17.016 7.548C17.336 7.772 17.496 8.172 17.496 8.748C17.496 9.308 17.336 9.708 17.016 9.948C16.712 10.188 16.352 10.308 15.936 10.308ZM12.504 25.5V24.42H12.816C13.136 24.42 13.44 24.388 13.728 24.324C14.016 24.244 14.248 24.092 14.424 23.868C14.616 23.644 14.712 23.3 14.712 22.836V15.3C14.712 14.836 14.616 14.492 14.424 14.268C14.248 14.044 14.016 13.9 13.728 13.836C13.44 13.756 13.136 13.716 12.816 13.716H12.696V12.636H17.352V22.74C17.352 23.236 17.44 23.604 17.616 23.844C17.808 24.068 18.048 24.22 18.336 24.3C18.624 24.38 18.928 24.42 19.248 24.42H19.56V25.5H12.504Z" fill="white"/>
</svg>
