<svg width="32" height="32" viewBox="0 0 32 32" fill="none" xmlns="http://www.w3.org/2000/svg">
<rect width="32" height="32" rx="16" transform="matrix(-1 0 0 1 32 0)" fill="#CE976F"/>
<path d="M9.96766 8.475L16.4033 6.43739C16.726 6.33652 17.069 6.57861 17.069 6.92158V7.86977H20.2162C20.4986 7.86977 20.7205 8.09168 20.7205 8.37412V14.3659H19.6311V8.95918H17.0488V23.0408H19.6513V17.6341H20.7407V23.6259C20.7407 23.9083 20.5188 24.1302 20.2364 24.1302H17.0892V25.0784C17.0892 25.4214 16.7462 25.6635 16.4234 25.5626L9.98784 23.525C9.76592 23.4645 9.6247 23.2627 9.6247 23.0408V8.97935C9.6247 8.75744 9.76592 8.55569 9.96766 8.475ZM14.9305 16.6052C15.2735 16.6052 15.5358 16.3228 15.5358 16C15.5358 15.657 15.2533 15.3948 14.9305 15.3948C14.6077 15.3948 14.3051 15.6772 14.3051 16C14.3051 16.343 14.5876 16.6052 14.9305 16.6052Z" fill="white"/>
<path d="M18.0976 16.9079C17.9362 16.9079 17.795 16.7667 17.795 16.6053V15.3948C17.795 15.2334 17.9362 15.0922 18.0976 15.0922H22.0518V13.8817C22.0518 13.5791 22.3947 13.4177 22.6368 13.5993L25.2393 15.7176C25.4209 15.8588 25.4209 16.1413 25.2393 16.2825L22.6368 18.4008C22.3947 18.5824 22.0518 18.421 22.0518 18.1183V16.9079H18.0976Z" fill="white"/>
</svg>
