<svg width="28" height="29" viewBox="0 0 28 29" fill="none" xmlns="http://www.w3.org/2000/svg">
<circle cx="14" cy="14.5" r="14" fill="#CE976F"/>
<path fill-rule="evenodd" clip-rule="evenodd" d="M15.6667 6.16667C15.6667 5.24619 14.9205 4.5 14 4.5C13.0795 4.5 12.3333 5.24619 12.3333 6.16667V12.8333H5.66667C4.74619 12.8333 4 13.5795 4 14.5C4 15.4205 4.74619 16.1667 5.66667 16.1667H12.3333L12.3333 22.8333C12.3333 23.7538 13.0795 24.5 14 24.5C14.9205 24.5 15.6667 23.7538 15.6667 22.8333L15.6667 16.1667H22.3333C23.2538 16.1667 24 15.4205 24 14.5C24 13.5795 23.2538 12.8333 22.3333 12.8333L15.6667 12.8333V6.16667Z" fill="white"/>
</svg>
