<svg width="32" height="32" viewBox="0 0 32 32" fill="none" xmlns="http://www.w3.org/2000/svg">
<path fill-rule="evenodd" clip-rule="evenodd" d="M5.2089 17.6307C4.29573 17.2693 4.2596 16.6001 5.13061 16.1431L26.3179 5.03303C27.189 4.57682 27.6903 4.97958 27.4321 5.92813L22.8587 22.7386C22.5998 23.6871 21.6256 24.1238 20.714 23.7534L17.7132 22.5316C16.8023 22.1612 15.308 21.5657 14.391 21.2111L14.0741 21.0876C13.1572 20.7331 12.9584 19.8538 13.6314 19.1378L22.9197 9.19612C23.5905 8.47793 23.5077 8.38835 22.7353 8.99587L10.986 18.2616C10.2114 18.8661 8.82845 19.0641 7.91453 18.7012L5.2089 17.6307ZM14.4071 24.3917C14.4071 24.3917 12.5032 27.3088 12.5567 27.1485C12.6116 26.9836 10.6852 22.3402 10.6852 22.3402C10.3088 21.4316 10.7446 20.9949 11.6541 21.3668L13.7303 22.2168C14.6397 22.5887 14.9454 23.5696 14.4071 24.3917Z" fill="#CE976F"/>
</svg>
