<svg width="36" height="36" viewBox="0 0 36 36" fill="none" xmlns="http://www.w3.org/2000/svg">
<rect width="36" height="36" rx="18" fill="#CE976F" fill-opacity="0.35"/>
<path fill-rule="evenodd" clip-rule="evenodd" d="M21.6976 22.763C25.8482 20.2249 27.2394 14.8247 24.7928 10.5871C22.3075 6.28244 16.8032 4.80756 12.4986 7.29285C8.19394 9.77813 6.71906 15.2824 9.20434 19.5871C11.387 23.3675 15.8981 24.9654 19.8802 23.6151L23.2283 29.4143C23.5045 29.8926 24.1161 30.0564 24.5943 29.7803C25.0726 29.5041 25.2365 28.8926 24.9604 28.4143L21.6976 22.763ZM20.1747 20.5883C17.1365 22.3425 13.2515 21.3015 11.4973 18.2632C9.74319 15.225 10.7842 11.34 13.8224 9.58583C16.8607 7.83169 20.7457 8.87267 22.4998 11.9109C24.254 14.9492 23.213 18.8342 20.1747 20.5883ZM12.9971 15.0856C12.9971 14.5333 13.4448 14.0856 13.9971 14.0856H15.9971V12.0856C15.9971 11.5333 16.4448 11.0856 16.9971 11.0856C17.5494 11.0856 17.9971 11.5333 17.9971 12.0856V14.0856H19.9971C20.5494 14.0856 20.9971 14.5333 20.9971 15.0856C20.9971 15.6379 20.5494 16.0856 19.9971 16.0856H17.9971V18.0856C17.9971 18.6379 17.5494 19.0856 16.9971 19.0856C16.4448 19.0856 15.9971 18.6379 15.9971 18.0856V16.0856H13.9971C13.4448 16.0856 12.9971 15.6379 12.9971 15.0856Z" fill="#5C2E0C"/>
</svg>
