<svg width="36" height="36" viewBox="0 0 36 36" fill="none" xmlns="http://www.w3.org/2000/svg">
<rect width="36" height="36" rx="18" fill="#CE976F" fill-opacity="0.35"/>
<path fill-rule="evenodd" clip-rule="evenodd" d="M24.7928 10.5871C27.2394 14.8247 25.8482 20.2249 21.6976 22.763L24.9604 28.4143C25.2365 28.8926 25.0726 29.5041 24.5943 29.7803C24.1161 30.0564 23.5045 29.8926 23.2283 29.4143L19.8802 23.6151C15.8981 24.9654 11.387 23.3675 9.20434 19.5871C6.71906 15.2824 8.19394 9.77813 12.4986 7.29285C16.8032 4.80756 22.3075 6.28244 24.7928 10.5871ZM11.4973 18.2632C13.2515 21.3015 17.1365 22.3425 20.1747 20.5883C23.213 18.8342 24.254 14.9492 22.4998 11.9109C20.7457 8.87267 16.8607 7.83169 13.8224 9.58583C10.7842 11.34 9.74319 15.225 11.4973 18.2632ZM13.9971 14.0856C13.4448 14.0856 12.9971 14.5333 12.9971 15.0856C12.9971 15.6379 13.4448 16.0856 13.9971 16.0856H19.9971C20.5494 16.0856 20.9971 15.6379 20.9971 15.0856C20.9971 14.5333 20.5494 14.0856 19.9971 14.0856H13.9971Z" fill="#5C2E0C"/>
</svg>
